<svg xmlns="http://www.w3.org/2000/svg" viewBox="0 0 45.6965 44.4422"><defs><style>.a,.b,.c{fill:none;stroke:#fff;}.a,.b{stroke-miterlimit:10;}.a{stroke-width:1.4005px;}.b,.c{stroke-width:1.0518px;}.c{stroke-linecap:round;stroke-linejoin:round;}</style></defs><title>Asset 1</title><path class="a" d="M40.9678,33.5145s5.478-9.103,3.6581-12.9542-3.5865-7.98-6.9666-10.1909-10.63-5.8655-11.9465-5.8655c-.6267,0-20.2985-3.71-20.2985-3.71L.7209,12.1968,2.017,20.9733,3.1643,32.275l6.947,6.8027,23.9417,4.59,6.9148-10.1534"/><polygon class="b" points="9.329 32.275 30.912 38.032 34.194 16.575 26.368 13.268 9.329 24.401 9.329 32.275"/><line class="b" x1="9.3287" y1="32.275" x2="33.4326" y2="16.2531"/><polyline class="c" points="26.368 13.268 26.945 20.973 30.912 38.032 16.811 27.301 9.329 24.401"/><polyline class="b" points="16.811 27.301 18.782 19.419 26.945 20.973"/><polygon class="b" points="20.12 8.598 7.941 5.349 6.089 17.458 10.505 19.324 20.12 13.042 20.12 8.598"/><line class="b" x1="20.1205" y1="8.5981" x2="6.5186" y2="17.6393"/><polyline class="c" points="10.505 19.324 10.18 14.976 7.941 5.349 15.898 11.405 20.12 13.042"/><polyline class="b" points="15.898 11.405 14.786 15.853 10.18 14.976"/></svg>