<svg xmlns="http://www.w3.org/2000/svg" viewBox="0 0 47.2989 30.4961"><defs><style>.a{fill:none;stroke:#fff;stroke-miterlimit:10;stroke-width:1.4024px;}</style></defs><title>Asset 1</title><polygon class="a" points="0.701 7.547 0.701 11.903 20.304 16.726 30.106 2.335 42.383 2.335 42.383 0.701 26.528 0.701 21.542 4.902 0.701 5.369 0.701 7.547"/><path class="a" d="M4.7463,22.0158a7.7791,7.7791,0,1,0,7.7791-7.779A7.7791,7.7791,0,0,0,4.7463,22.0158Zm4.3563,0a3.4228,3.4228,0,1,1,3.4228,3.4228A3.4229,3.4229,0,0,1,9.1026,22.0158Z"/><path class="a" d="M19.4268,18.4329l.8776,3.5829h8.4014a7.7791,7.7791,0,1,0,15.5581,0c0-.2626-.0139-.522-.0393-.7779h2.373V18.1263h-.9335l-.7-8.4014H39.5965V4.28H31.0406l-9.923,14.5693-1.6908-.416Zm13.6353,3.5829a3.4228,3.4228,0,1,1,3.4228,3.4228A3.4228,3.4228,0,0,1,33.0621,22.0158ZM32.4916,5.68h5.7046V9.7249H32.4916Z"/></svg>